<svg xmlns="http://www.w3.org/2000/svg" fill="none" viewBox="0 0 198 55" height="55" width="198">
<path stroke-width="7" stroke="white" fill="white" d="M103.61 43.6911V29.7329H119.028V28.9148H103.61V15.2467H120.706V14.4287H102.751V44.509H121.306V43.6911H103.61Z"></path>
<path stroke-width="7" stroke="white" fill="white" d="M51.6721 13.9216V44.5093H52.5212V15.071L51.7134 13.9216H51.6721Z"></path>
<path stroke-width="7" stroke="white" fill="white" d="M89.2842 22.2673V44.5091H90.1436V21.0973H90.1023L89.2842 22.2673Z"></path>
<path stroke-width="7" stroke="white" fill="white" d="M37.7871 14.4288H36.9277V44.4988H37.7871V14.4288Z"></path>
<path stroke-width="7" stroke="white" fill="white" d="M4 15.2468H13.3399V44.5091H14.189V15.2468H23.529V14.4288H4V15.2468Z"></path>
<path stroke-width="7" stroke="#B299D2" fill="#B299D2" d="M86.2461 11L69.7334 37.681C69.5676 37.5982 69.3917 37.5464 69.1949 37.5464C69.0293 37.5464 68.8635 37.5774 68.7185 37.6395L60 25.2243V26.6637L68.1387 38.1365C68.0248 38.323 67.9523 38.5404 67.9523 38.7785C67.9523 39.462 68.5011 40.0211 69.1949 40.0211C69.8784 40.0211 70.4375 39.4723 70.4375 38.7785C70.4375 38.5508 70.3754 38.3333 70.2614 38.1469L78.6307 24.8234L87 12L91.5 6L89 6.5L86.2461 11Z" clip-rule="evenodd" fill-rule="evenodd"></path>
<path stroke-width="7" stroke="white" d="M159.353 14.6979H160.275L146.855 43.9601M146.855 43.9601L146.5 45L133.415 14.6979H134.43C142.931 34.6306 137.66 22.2568 146.855 43.9601Z"></path>
<path stroke-miterlimit="10" stroke-width="7" stroke="white" d="M180.141 44.4263C187.779 44.4263 193.97 38.2352 193.97 30.5979C193.97 22.9606 187.779 16.7694 180.141 16.7694C172.504 16.7694 166.312 22.9606 166.312 30.5979C166.312 38.2352 172.504 44.4263 180.141 44.4263Z"></path>
</svg>
